<?xml version="1.0" encoding="UTF-8"?>
<svg version="1.1" xmlns="http://www.w3.org/2000/svg" width="500" height="500">
<path d="M0 0 C11.83980141 9.79777928 21.86749714 25.65327003 24 41 C24.31412487 47.33286336 24.17725118 53.6649116 24 60 C24.85380249 60.06731323 24.85380249 60.06731323 25.72485352 60.13598633 C28.33857798 60.34912949 30.95036884 60.58067564 33.5625 60.8125 C34.90538086 60.91788086 34.90538086 60.91788086 36.27539062 61.02539062 C43.20654826 61.66011202 48.64789337 62.59319322 53.6875 67.75 C57.6099207 73.26259126 60.31683515 78.593096 62.734375 84.8671875 C64.38030237 88.94136574 66.19433339 92.93215809 68 96.9375 C77.12665855 117.36523298 77.12665855 117.36523298 76 124 C75.18311195 125.27467431 74.32472844 126.52324559 73.4375 127.75 C70.34101118 132.16858517 70.85217291 135.69345104 71.60546875 140.875 C71.73566406 141.57625 71.86585938 142.2775 72 143 C68.7 143 65.4 143 62 143 C61.67 142.01 61.34 141.02 61 140 C60.67 140.495 60.34 140.99 60 141.5 C56.82427253 143.88179561 53.89753934 143.19168226 50 143 C52.75250163 140.17921112 55.55376251 137.47974171 58.515625 134.87890625 C59.12664062 134.33556641 59.73765625 133.79222656 60.3671875 133.23242188 C61.6292413 132.11306918 62.90024749 131.00373469 64.1796875 129.90429688 C67.00457071 127.36490718 68.76414724 125.65332936 70.0703125 122.03515625 C69.98380414 118.30087854 69.01962237 115.28744764 67.625 111.875 C67.36187012 111.20065918 67.09874023 110.52631836 66.82763672 109.83154297 C64.08896879 102.94517103 61.01337512 96.19833401 57.89697266 89.47607422 C57.5210498 88.66154785 57.14512695 87.84702148 56.7578125 87.0078125 C56.24951904 85.91944092 56.24951904 85.91944092 55.73095703 84.80908203 C55 83 55 83 55 81 C54.34 81 53.68 81 53 81 C52.67 78.69 52.34 76.38 52 74 C51.34 74 50.68 74 50 74 C49.690625 73.071875 49.690625 73.071875 49.375 72.125 C47.40906884 69.08674275 45.45343568 68.91772823 42 68 C38.84661335 67.70863777 38.84661335 67.70863777 35.50796509 67.75949097 C34.22076569 67.75674164 32.93356628 67.75399231 31.60736084 67.75115967 C30.1934805 67.7582366 28.77960112 67.7655062 27.36572266 67.77294922 C25.86731982 67.77351375 24.36891643 67.77319595 22.87051392 67.77206421 C18.81309864 67.77149135 14.75580207 67.78323489 10.69841433 67.79721212 C6.45433437 67.80973055 2.21025157 67.81089086 -2.03384399 67.81326294 C-10.06601175 67.81947444 -18.09812494 67.83588079 -26.13026869 67.85596192 C-35.27653811 67.87833119 -44.42281017 67.88931694 -53.56910014 67.89935279 C-72.37943101 67.92024731 -91.18971111 67.95541687 -110 68 C-109.46383057 68.25974609 -108.92766113 68.51949219 -108.37524414 68.78710938 C-107.66489014 69.13580078 -106.95453613 69.48449219 -106.22265625 69.84375 C-105.52148682 70.18599609 -104.82031738 70.52824219 -104.09790039 70.88085938 C-95.08742675 75.6875638 -90.12148858 84.18259471 -86.6887207 93.59570312 C-85.53791418 97.38051162 -84.46106798 101.17932178 -83.4375 105 C-80.0436671 117.53837101 -76.34298347 129.57828352 -67 139 C-66.21625 139.804375 -65.4325 140.60875 -64.625 141.4375 C-63.820625 142.2109375 -63.820625 142.2109375 -63 143 C-67.11618591 143.66152988 -69.60004352 144.00034698 -73.06640625 141.5234375 C-83.70662762 130.40430205 -87.31411129 115.47079985 -90.984375 100.98706055 C-92.72770304 94.37648199 -94.68200679 89.16289815 -98.82592773 83.68505859 C-100 82 -100 82 -100 80 C-100.99 79.67 -101.98 79.34 -103 79 C-103.33 100.12 -103.66 121.24 -104 143 C-105.65 142.67 -107.3 142.34 -109 142 C-109.0154612 140.78850533 -109.0154612 140.78850533 -109.03123474 139.55253601 C-109.12916784 131.94515058 -109.23167633 124.33784714 -109.33933926 116.73059368 C-109.39452943 112.81952916 -109.44794319 108.9084571 -109.49731445 104.99731445 C-109.54501562 101.22363082 -109.59736051 97.45003769 -109.65294075 93.67646217 C-109.67333824 92.23597273 -109.69205562 90.79545849 -109.70907402 89.35492516 C-109.73317543 87.33901658 -109.7637768 85.32318886 -109.79467773 83.30737305 C-109.81022202 82.15931686 -109.8257663 81.01126068 -109.84178162 79.82841492 C-109.88013276 76.92168722 -109.88013276 76.92168722 -111 74 C-115.95 73.34 -120.9 72.68 -126 72 C-126.4021875 74.9390625 -126.4021875 74.9390625 -126.8125 77.9375 C-127.72707038 84.39870943 -128.82017916 90.81283482 -130.03442383 97.22436523 C-131.15299981 103.29632658 -131.81709344 107.11218911 -128.625 112.5 C-125.94546148 117.5647052 -125.10189663 122.22527769 -124.40234375 127.875 C-123.95403356 131.3570209 -123.2161497 134.69527699 -122.3671875 138.09765625 C-122 140 -122 140 -122 144 C-124.31 144.99 -126.62 145.98 -129 147 C-129.99 142.38 -130.98 137.76 -132 133 C-133.32 132.67 -134.64 132.34 -136 132 C-137.27177888 138.20559266 -138.53414982 144.41304784 -139.7902832 150.62182617 C-140.21785355 152.72967861 -140.64750244 154.83711061 -141.0793457 156.9440918 C-141.70302886 159.98896346 -142.31898942 163.03531568 -142.93359375 166.08203125 C-143.12529648 167.00957718 -143.31699921 167.93712311 -143.51451111 168.89277649 C-144.78532373 175.24364205 -145.5333969 181.54109234 -146 188 C-145.50628906 187.3503125 -145.01257813 186.700625 -144.50390625 186.03125 C-143.86324219 185.1959375 -143.22257813 184.360625 -142.5625 183.5 C-141.92441406 182.6646875 -141.28632813 181.829375 -140.62890625 180.96875 C-139.82259766 179.99421875 -139.82259766 179.99421875 -139 179 C-138.67 179 -138.34 179 -138 179 C-137.32869235 184.27456008 -137.61673052 187.0942291 -140.875 191.375 C-142.22312667 192.94022062 -143.59999367 194.48100579 -145 196 C-145.70253906 196.7940625 -146.40507812 197.588125 -147.12890625 198.40625 C-162.20598058 214.52928041 -182.23160602 223.60028067 -202.89697266 230.31640625 C-204.28211535 230.76664998 -205.66471674 231.22480031 -207.04443359 231.69140625 C-227.20422598 238.480848 -250.06450192 241.96774531 -271 237 C-271.38439411 241.04196298 -271.38439411 241.04196298 -269.87866211 244.64990234 C-262.30719853 250.09112308 -247.53497547 246.58448546 -238.9375 245.375 C-238.2670163 245.28419159 -237.59653259 245.19338318 -236.9057312 245.099823 C-225.06834119 243.49247969 -213.50942024 241.21344213 -202 238 C-201.28360352 237.80825195 -200.56720703 237.61650391 -199.82910156 237.41894531 C-189.17400606 234.5436037 -179.73145774 230.15702528 -170 225 C-168.97261719 224.50628906 -167.94523437 224.01257813 -166.88671875 223.50390625 C-163.84174485 221.91755313 -161.19453077 220.10576178 -158.4375 218.0625 C-157.52871094 217.39347656 -156.61992187 216.72445312 -155.68359375 216.03515625 C-154.79800781 215.36355469 -153.91242188 214.69195312 -153 214 C-152.16082031 213.38511719 -151.32164062 212.77023437 -150.45703125 212.13671875 C-147.06346921 209.18556067 -144.65626809 205.70694265 -142.04296875 202.0703125 C-141.0472008 200.69986576 -140.02587823 199.34805487 -139 198 C-138.67 198 -138.34 198 -138 198 C-137.35454006 202.35685461 -137.24594544 204.76012421 -139.5703125 208.58203125 C-142.54456907 212.35356952 -145.24064543 215.48275848 -149.234375 218.203125 C-152.62890534 221.63601161 -152.72996166 223.33354314 -152.72265625 227.99804688 C-152.69042969 228.84431641 -152.65820312 229.69058594 -152.625 230.5625 C-152.63144531 231.41263672 -152.63789063 232.26277344 -152.64453125 233.13867188 C-152.57814391 236.98611981 -152.51418395 239.28173861 -150.23828125 242.4609375 C-141.01590351 248.80232813 -129.30033934 249.30953398 -118.49951172 250.67529297 C-115.0522876 251.1231156 -111.62181766 251.64959482 -108.1875 252.1875 C-107.17042969 252.34605469 -106.15335938 252.50460937 -105.10546875 252.66796875 C-104.06326172 252.83232422 -104.06326172 252.83232422 -103 253 C-103.0721875 252.39414062 -103.144375 251.78828125 -103.21875 251.1640625 C-103.8924937 245.08165405 -104.11713363 239.11697862 -104 233 C-102.35 233.33 -100.7 233.66 -99 234 C-98.01 243.405 -98.01 243.405 -97 253 C-61.56218818 258.55887244 -26.30179144 253.97529032 8.20703125 245.15625 C19.87051297 242.23368202 31.88370528 240.62167168 43.76025391 238.80883789 C51.63667189 237.60384576 59.31755067 236.16372782 67 234 C68.12921875 233.68675781 68.12921875 233.68675781 69.28125 233.3671875 C70.85748974 232.92308821 72.42950611 232.46400956 74 232 C74.66 232.66 75.32 233.32 76 234 C65.45699538 244.54300462 48.09046867 244.81702798 34.125 246.9375 C19.92797655 249.10552371 5.93204554 251.56383169 -8.05078125 254.85131836 C-26.98389528 259.29455979 -45.63811267 261.47089216 -65.0625 261.4375 C-65.86285675 261.43763092 -66.6632135 261.43776184 -67.48782349 261.43789673 C-74.99990704 261.41570746 -81.74110669 261.14647764 -89 259 C-91.08964427 258.75712826 -93.18817965 258.58170254 -95.2890625 258.47265625 C-96.46791016 258.40457764 -97.64675781 258.33649902 -98.86132812 258.26635742 C-100.7243457 258.165448 -100.7243457 258.165448 -102.625 258.0625 C-144.45719122 255.43357219 -144.45719122 255.43357219 -153.859375 247.4140625 C-157.7648761 242.91615393 -158.24011176 239.1039975 -158.5625 233.375 C-158.60568359 232.66859375 -158.64886719 231.9621875 -158.69335938 231.234375 C-158.79944751 229.48981463 -158.90022889 227.74493303 -159 226 C-160.06734375 226.64066406 -161.1346875 227.28132812 -162.234375 227.94140625 C-173.43243712 234.50447096 -184.59356528 239.23314378 -197 243 C-197.75829102 243.23557617 -198.51658203 243.47115234 -199.29785156 243.71386719 C-213.58052962 248.07646297 -228.22522569 250.0562829 -243 252 C-243.76908691 252.10602539 -244.53817383 252.21205078 -245.33056641 252.32128906 C-254.68874979 253.57564081 -264.46431277 254.58398018 -273 250 C-276.0036694 247.67215622 -276.83278979 246.01792881 -277.4453125 242.2890625 C-277.74981279 237.03312279 -277.59774927 233.02542929 -274.4375 228.6875 C-273.31708551 227.43511983 -272.17107961 226.20513786 -271 225 C-270.51660156 224.40703125 -270.03320312 223.8140625 -269.53515625 223.203125 C-253.59398011 204.8687443 -219.99982556 202.0172649 -197.375 200.296875 C-187.65182503 199.72755752 -177.88202678 199.9119304 -168.14746094 200.07324219 C-167.42461914 200.08184265 -166.70177734 200.09044312 -165.95703125 200.0993042 C-163.97091982 200.1236336 -161.98495448 200.15914072 -159.99902344 200.1953125 C-156.88377903 200.32355154 -156.88377903 200.32355154 -155 198 C-154.35474646 195.3708467 -153.8159242 192.78907771 -153.3359375 190.12890625 C-153.18293686 189.31639404 -153.02993622 188.50388184 -152.87229919 187.66674805 C-152.36576293 184.96666231 -151.8703909 182.26465094 -151.375 179.5625 C-151.02242084 177.67101339 -150.66913877 175.77965769 -150.31518555 173.88842773 C-149.57560975 169.92903787 -148.84077339 165.96881114 -148.10986328 162.0078125 C-147.03838939 156.20159978 -145.95603795 150.3974586 -144.87109375 144.59375 C-143.19971529 135.64642963 -141.53776761 126.69738799 -139.87988281 117.74755859 C-139.08610533 113.46281975 -138.28955054 109.17860428 -137.4921875 104.89453125 C-137.15876343 103.1000354 -137.15876343 103.1000354 -136.81860352 101.26928711 C-136.40884146 99.06544888 -135.99793776 96.8618225 -135.58569336 94.65844727 C-134.72048804 90.01081354 -133.88428513 85.36342968 -133.13671875 80.6953125 C-133.00563721 79.8923877 -132.87455566 79.08946289 -132.73950195 78.26220703 C-132.40679535 76.19733134 -132.08930832 74.13001806 -131.7734375 72.0625 C-130.98712281 68.94901154 -130.58310013 67.81548075 -128 66 C-126.1328125 65.0859375 -126.1328125 65.0859375 -124.125 64.375 C-123.46757812 64.13523437 -122.81015625 63.89546875 -122.1328125 63.6484375 C-116.34692273 61.88935746 -110.88041669 61.84915172 -104.875 61.875 C-103.51568359 61.86919922 -103.51568359 61.86919922 -102.12890625 61.86328125 C-100.82373047 61.86521484 -100.82373047 61.86521484 -99.4921875 61.8671875 C-98.70183105 61.86831543 -97.91147461 61.86944336 -97.09716797 61.87060547 C-95 62 -95 62 -92 63 C-91.98582031 62.28199219 -91.97164062 61.56398438 -91.95703125 60.82421875 C-90.98800078 39.79363853 -83.66107272 16.57017036 -67.84765625 2.01953125 C-47.54010212 -14.7190327 -21.09194036 -15.18291427 0 0 Z M-54.5390625 8.53125 C-63.21722573 23.19595364 -74 45.75884593 -74 63 C-66.69680719 63.02339118 -59.39362273 63.04104924 -52.09039974 63.05181217 C-48.69754124 63.05698339 -45.30470876 63.06397331 -41.91186523 63.07543945 C-21.43124197 63.2203621 -21.43124197 63.2203621 -1 62 C-2.34547704 50.11495279 -4.12628529 38.41216699 -6.8125 26.75 C-7.03631348 25.72849854 -7.26012695 24.70699707 -7.49072266 23.65454102 C-9.3917653 15.73871347 -12.23179706 8.25568074 -18.52734375 2.81640625 C-19.32269531 2.40261719 -20.11804688 1.98882812 -20.9375 1.5625 C-21.79988281 1.10746094 -22.66226563 0.65242188 -23.55078125 0.18359375 C-24.35902344 -0.20699219 -25.16726562 -0.59757812 -26 -1 C-26.63292969 -1.33902344 -27.26585937 -1.67804688 -27.91796875 -2.02734375 C-39.55279116 -7.80481849 -47.87356345 -1.04350002 -54.5390625 8.53125 Z M-20 -4 C-19.443125 -3.443125 -18.88625 -2.88625 -18.3125 -2.3125 C-17.549375 -1.549375 -16.78625 -0.78625 -16 0 C-15.195625 0.7425 -14.39125 1.485 -13.5625 2.25 C-7.26455522 9.00877001 -4.8506062 15.87944334 -2.875 24.8125 C-2.62274658 25.90530273 -2.37049316 26.99810547 -2.1105957 28.12402344 C-0.23445089 36.44384312 1.26089326 44.79177744 2.45703125 53.234375 C2.88284434 56.18749602 3.37441695 59.08443862 4 62 C6.97 62 9.94 62 13 62 C13.65199675 41.80621185 11.91436477 27.94992181 -1.3125 11.8125 C-2.199375 10.884375 -3.08625 9.95625 -4 9 C-4.66 9 -5.32 9 -6 9 C-6 6 -6 6 -4 4 C-5.41468311 3.03874097 -6.8318364 2.08111675 -8.25 1.125 C-9.03890625 0.59132813 -9.8278125 0.05765625 -10.640625 -0.4921875 C-14.9852286 -3.30499505 -14.9852286 -3.30499505 -20 -4 Z M-56 0 C-72.02098675 11.56850408 -79.9586818 25.68556782 -84.3125 44.8125 C-84.57611328 45.90498047 -84.83972656 46.99746094 -85.11132812 48.12304688 C-86.3049174 53.21672787 -87.14112965 57.74425438 -87 63 C-84.36 63 -81.72 63 -79 63 C-78.72027344 61.86046875 -78.44054687 60.7209375 -78.15234375 59.546875 C-72.98003257 38.93029367 -66.78315666 18.27274282 -54 1 C-54.66 0.67 -55.32 0.34 -56 0 Z M-3 6 C-1.32598022 9.95677402 1.13149285 12.84464213 4 16 C4.66 16 5.32 16 6 16 C4.46990911 12.55729549 2.5068778 9.81074178 0 7 C-0.99 6.67 -1.98 6.34 -3 6 Z M6 16 C7.62074547 20.23194651 9.62146892 24.13221716 11.78125 28.109375 C14.95480041 35.63638558 15.27120278 42.98198484 15.125 51.0625 C15.11597656 52.02349609 15.10695313 52.98449219 15.09765625 53.97460938 C15.07435208 56.31667805 15.04164058 58.65819792 15 61 C15.99 61 16.98 61 18 61 C19.2039337 57.24600202 19.09877617 53.66782588 19.0625 49.75 C19.05347656 48.48671875 19.04445313 47.2234375 19.03515625 45.921875 C19.02355469 44.95765625 19.01195312 43.9934375 19 43 C18.67 43 18.34 43 18 43 C17.9484375 42.29617187 17.896875 41.59234375 17.84375 40.8671875 C16.77858127 31.59537788 13.20253092 24.59786287 8 17 C7.34 16.67 6.68 16.34 6 16 Z M-134 115 C-134.22162329 116.62324086 -134.42689803 118.248721 -134.625 119.875 C-134.74101562 120.77992188 -134.85703125 121.68484375 -134.9765625 122.6171875 C-134.98429688 123.40351563 -134.99203125 124.18984375 -135 125 C-134.34 125.66 -133.68 126.32 -133 127 C-131.71387324 125.94021067 -131.71387324 125.94021067 -131.90234375 123.49609375 C-131.91394531 122.48675781 -131.92554688 121.47742188 -131.9375 120.4375 C-131.94652344 119.42558594 -131.95554688 118.41367188 -131.96484375 117.37109375 C-131.97644531 116.58863281 -131.98804688 115.80617188 -132 115 C-132.66 115 -133.32 115 -134 115 Z M-148 189 C-147 191 -147 191 -147 191 Z M-264 225 C-263.34 225.33 -262.68 225.66 -262 226 C-259.50371511 225.1648682 -257.07575251 224.26612165 -254.625 223.3125 C-244.95059503 219.72057991 -235.1504742 217.72652391 -225 216 C-224.06115967 215.82049805 -223.12231934 215.64099609 -222.1550293 215.45605469 C-215.72935315 214.31510833 -209.49721163 213.84209984 -202.98828125 213.796875 C-202.2014798 213.79032898 -201.41467834 213.78378296 -200.60403442 213.77703857 C-197.35185417 213.75637099 -194.10056278 213.74359743 -190.84838867 213.77001953 C-180.80565277 213.8320179 -173.1079249 213.75510808 -165 207 C-165.495 206.01 -165.495 206.01 -166 205 C-198.89190502 204.36905007 -236.18399025 205.27233351 -264 225 Z M-265 233 C-263.700625 233.165 -262.40125 233.33 -261.0625 233.5 C-260.33160156 233.5928125 -259.60070312 233.685625 -258.84765625 233.78125 C-251.16148027 234.37168327 -243.80668524 233.77037612 -236.1875 232.6875 C-234.72195679 232.48012207 -234.72195679 232.48012207 -233.22680664 232.26855469 C-218.91429947 230.17433232 -205.64683685 225.67360053 -192 221 C-192.99 219.515 -192.99 219.515 -194 218 C-212.55244936 214.68590222 -249.99239411 220.46338007 -265 233 Z " fill="#0A0402" transform="translate(281,127)"/>
<path d="M0 0 C4.29 0 8.58 0 13 0 C13.024644 6.39037797 13.04283317 12.78072852 13.05493164 19.17114258 C13.05997308 21.34692873 13.06680607 23.52271147 13.07543945 25.69848633 C13.08751338 28.81853067 13.09323005 31.93853038 13.09765625 35.05859375 C13.10281754 36.03775253 13.10797882 37.01691132 13.11329651 38.02574158 C13.11337204 38.92659988 13.11344757 39.82745819 13.11352539 40.75561523 C13.115746 41.55281479 13.11796661 42.35001434 13.12025452 43.17137146 C13 45 13 45 12 46 C9.78515625 46.203125 9.78515625 46.203125 7.0625 46.25 C6.16660156 46.27578125 5.27070313 46.3015625 4.34765625 46.328125 C3.57292969 46.21984375 2.79820312 46.1115625 2 46 C1.34 45.01 0.68 44.02 0 43 C-0.55816406 43.48726563 -1.11632812 43.97453125 -1.69140625 44.4765625 C-5.55259016 47.02455188 -9.52822229 46.53719407 -14 46 C-17.74080326 44.40816883 -19.99423363 42.53396932 -22 39 C-24.12758582 32.83000111 -24.48866552 27.39376486 -23 21 C-20.96813815 17.1464689 -18.91525275 14.0105352 -15 12 C-9.91876856 10.85385757 -5.71342683 10.41521755 -1 13 C-1.01160156 12.31292969 -1.02320313 11.62585938 -1.03515625 10.91796875 C-1.04417969 10.01691406 -1.05320312 9.11585938 -1.0625 8.1875 C-1.07410156 7.29417969 -1.08570313 6.40085937 -1.09765625 5.48046875 C-1 3 -1 3 0 0 Z M-10 24 C-10.31899515 26.36955386 -10.31899515 26.36955386 -10.25 29 C-10.25515625 29.886875 -10.2603125 30.77375 -10.265625 31.6875 C-10.22052862 34.19400239 -10.22052862 34.19400239 -8 36 C-5.54290625 36.58350505 -5.54290625 36.58350505 -3 36 C-0.93849513 33.98341617 -0.93849513 33.98341617 0 31 C-0.22629577 27.66213732 -0.49914251 25.00171497 -2 22 C-6.49304582 21.57496554 -6.49304582 21.57496554 -10 24 Z " fill="#030101" transform="translate(383,289)"/>
<path d="M0 0 C4.29 0 8.58 0 13 0 C13.33 4.29 13.66 8.58 14 13 C15.65 12.34 17.3 11.68 19 11 C23.60716003 10.68751436 27.71746125 11.36099997 31.4375 14.1875 C36.16935063 19.38099459 36.40300097 24.46216397 36.24609375 31.24609375 C35.7467792 36.83366138 34.48007266 40.55602668 30.4375 44.5 C25.83351794 46.50901035 21.95148074 46.69705311 17 46 C13.375 44.5 13.375 44.5 11 43 C10.67 43.99 10.34 44.98 10 46 C8.52093108 46.02689216 7.04172517 46.04634621 5.5625 46.0625 C4.73878906 46.07410156 3.91507812 46.08570313 3.06640625 46.09765625 C1 46 1 46 0 45 C-0.0928726 43.58774954 -0.11746772 42.17091066 -0.11352539 40.75561523 C-0.11344986 39.85475693 -0.11337433 38.95389862 -0.11329651 38.02574158 C-0.10813522 37.04658279 -0.10297394 36.06742401 -0.09765625 35.05859375 C-0.0962413 34.06118668 -0.09482635 33.0637796 -0.09336853 32.03614807 C-0.08775114 28.83656876 -0.07519571 25.63705831 -0.0625 22.4375 C-0.05748724 20.27408955 -0.05292395 18.11067801 -0.04882812 15.94726562 C-0.03777606 10.63148371 -0.02049979 5.31575354 0 0 Z M15 22 C12.46313624 25.80529564 12.40644865 28.53909062 13 33 C14.00488226 35.17500647 14.00488226 35.17500647 16 36 C19.34192692 35.75546876 20.60543557 35.39456443 23 33 C23.50966413 27.11663097 23.50966413 27.11663097 21 22 C18 21.5 18 21.5 15 22 Z " fill="#040101" transform="translate(402,289)"/>
<path d="M0 0 C3.35286458 0.03255208 6.70572917 0.06510417 10.05859375 0.09765625 C10.38859375 4.38765625 10.71859375 8.67765625 11.05859375 13.09765625 C12.70859375 12.43765625 14.35859375 11.77765625 16.05859375 11.09765625 C20.36224658 10.62816685 22.51560185 10.81079261 26.37109375 12.84765625 C29.00898345 15.05612204 29.87918185 15.98056618 31.05859375 19.09765625 C31.30151367 21.92260742 31.30151367 21.92260742 31.2890625 25.140625 C31.28712891 26.29626953 31.28519531 27.45191406 31.28320312 28.64257812 C31.26483398 30.4456543 31.26483398 30.4456543 31.24609375 32.28515625 C31.24544922 33.49880859 31.24480469 34.71246094 31.24414062 35.96289062 C31.19884087 44.95740913 31.19884087 44.95740913 30.05859375 46.09765625 C28.03895176 46.17009678 26.01692251 46.18142813 23.99609375 46.16015625 C22.89136719 46.15113281 21.78664062 46.14210938 20.6484375 46.1328125 C19.79378906 46.12121094 18.93914062 46.10960937 18.05859375 46.09765625 C18.0335376 45.43644775 18.00848145 44.77523926 17.98266602 44.09399414 C17.86706273 41.1158332 17.74417621 38.13801705 17.62109375 35.16015625 C17.58177734 34.11923828 17.54246094 33.07832031 17.50195312 32.00585938 C17.46005859 31.01650391 17.41816406 30.02714844 17.375 29.0078125 C17.33834229 28.09136963 17.30168457 27.17492676 17.26391602 26.23071289 C17.28855511 24.11558345 17.28855511 24.11558345 16.05859375 23.09765625 C14.40859375 23.09765625 12.75859375 23.09765625 11.05859375 23.09765625 C10.72859375 30.35765625 10.39859375 37.61765625 10.05859375 45.09765625 C7.43529691 46.40930467 5.4216075 46.23028471 2.49609375 46.22265625 C1.50480469 46.22523438 0.51351562 46.2278125 -0.5078125 46.23046875 C-2.94140625 46.09765625 -2.94140625 46.09765625 -3.94140625 45.09765625 C-4.03935936 43.72155743 -4.06938713 42.34051743 -4.07080078 40.9609375 C-4.07395294 40.08332764 -4.0771051 39.20571777 -4.08035278 38.30151367 C-4.07832855 37.34736572 -4.07630432 36.39321777 -4.07421875 35.41015625 C-4.07517548 34.43731689 -4.0761322 33.46447754 -4.07711792 32.4621582 C-4.07779983 30.40087825 -4.07594478 28.33959617 -4.07177734 26.27832031 C-4.06642925 23.11127937 -4.07172197 19.94438025 -4.078125 16.77734375 C-4.07746422 14.7799476 -4.07618306 12.78255154 -4.07421875 10.78515625 C-4.07624298 9.8310083 -4.07826721 8.87686035 -4.08035278 7.89379883 C-4.07720062 7.01618896 -4.07404846 6.1385791 -4.07080078 5.234375 C-4.07000519 4.45795654 -4.06920959 3.68153809 -4.06838989 2.8815918 C-3.84877229 -0.20371623 -3.12958669 0.10390394 0 0 Z " fill="#030101" transform="translate(217.94140625,288.90234375)"/>
<path d="M0 0 C3.09912041 2.63754928 4.71335878 4.14007635 6 8 C6.20017082 10.62223774 6.32264877 13.18779958 6.375 15.8125 C6.43107422 16.86147461 6.43107422 16.86147461 6.48828125 17.93164062 C6.55528151 21.91071166 6.16934714 24.29065767 3.62109375 27.4296875 C-0.85395326 31.81803465 -5.80219902 32.90299094 -12 33 C-18.14954735 32.40120327 -23.25686325 31.16470544 -28 27 C-32.01818737 21.64241684 -31.64287147 15.41110182 -31 9 C-29.38398976 4.23702245 -27.23556331 1.69535847 -23 -1 C-15.02161405 -4.01071168 -7.51440588 -4.06227497 0 0 Z M-17 8 C-17 8.99 -17 9.98 -17 11 C-12.9899066 11.17864631 -12.9899066 11.17864631 -9 11 C-8.34 10.34 -7.68 9.68 -7 9 C-7.33 8.34 -7.66 7.68 -8 7 C-12.73792977 5.73590965 -12.73792977 5.73590965 -17 8 Z M-17 17 C-17.33 17.66 -17.66 18.32 -18 19 C-16.98239527 21.13875077 -16.98239527 21.13875077 -15 23 C-11.37436186 23.33380814 -11.37436186 23.33380814 -8 23 C-7.34 21.35 -6.68 19.7 -6 18 C-9.63 17.67 -13.26 17.34 -17 17 Z " fill="#030101" transform="translate(285,303)"/>
<path d="M0 0 C13.86 0 27.72 0 42 0 C42 3.96 42 7.92 42 12 C37.38 12 32.76 12 28 12 C28.01160156 14.22621094 28.02320313 16.45242188 28.03515625 18.74609375 C28.04294722 20.89396014 28.04902375 23.04182497 28.05493164 25.18969727 C28.05997121 26.68644918 28.06680287 28.18319616 28.07543945 29.67993164 C28.08752159 31.82699807 28.09323191 33.97399962 28.09765625 36.12109375 C28.10551147 38.06133423 28.10551147 38.06133423 28.11352539 40.04077148 C28 43 28 43 27 44 C24.81360547 44.07258946 22.62499611 44.08373783 20.4375 44.0625 C18.64119141 44.04896484 18.64119141 44.04896484 16.80859375 44.03515625 C15.88175781 44.02355469 14.95492187 44.01195312 14 44 C12.57732138 41.15464275 12.78028131 38.63781448 12.68359375 35.4609375 C12.62075195 33.50800781 12.62075195 33.50800781 12.55664062 31.515625 C12.51682701 30.13541955 12.47711478 28.75521117 12.4375 27.375 C12.39430593 25.98696585 12.35069135 24.59894472 12.30664062 23.2109375 C12.20028 19.80739744 12.09825286 16.40378222 12 13 C11.14535156 12.95101563 10.29070312 12.90203125 9.41015625 12.8515625 C7.75306641 12.73941406 7.75306641 12.73941406 6.0625 12.625 C4.96035156 12.55539062 3.85820312 12.48578125 2.72265625 12.4140625 C1.82417969 12.27742188 0.92570313 12.14078125 0 12 C-1 10 -1 10 0 0 Z " fill="#030101" transform="translate(168,291)"/>
<path d="M0 0 C13.86 0 27.72 0 42 0 C42 3.96 42 7.92 42 12 C37.38 12 32.76 12 28 12 C28.01160156 14.22621094 28.02320313 16.45242188 28.03515625 18.74609375 C28.04294722 20.89396014 28.04902375 23.04182497 28.05493164 25.18969727 C28.05997121 26.68644918 28.06680287 28.18319616 28.07543945 29.67993164 C28.08752159 31.82699807 28.09323191 33.97399962 28.09765625 36.12109375 C28.10551147 38.06133423 28.10551147 38.06133423 28.11352539 40.04077148 C28 43 28 43 27 44 C22.71 44 18.42 44 14 44 C13.67 33.77 13.34 23.54 13 13 C8.71 12.67 4.42 12.34 0 12 C0 8.04 0 4.08 0 0 Z " fill="#030101" transform="translate(294,291)"/>
<path d="M0 0 C3.3 0 6.6 0 10 0 C10 3.3 10 6.6 10 10 C12.31 10 14.62 10 17 10 C17 12.97 17 15.94 17 19 C14.69 19.33 12.38 19.66 10 20 C10.33 24.95 10.66 29.9 11 35 C12.98 35 14.96 35 17 35 C17.09765625 41.15234375 17.09765625 41.15234375 17 43 C15.14709648 44.85290352 12.23375369 44.21658627 9.75 44.25 C8.61046875 44.27578125 7.4709375 44.3015625 6.296875 44.328125 C2.70100057 43.97024176 0.86622324 43.15489777 -2 41 C-3.17426264 38.65147472 -3.11508173 37.26225935 -3.09765625 34.6484375 C-3.09443359 33.79765625 -3.09121094 32.946875 -3.08789062 32.0703125 C-3.07951172 31.18085938 -3.07113281 30.29140625 -3.0625 29.375 C-3.05798828 28.4778125 -3.05347656 27.580625 -3.04882812 26.65625 C-3.03702591 24.43743352 -3.02056155 22.21874982 -3 20 C-4.65 19.67 -6.3 19.34 -8 19 C-8 16.03 -8 13.06 -8 10 C-6.02 10 -4.04 10 -2 10 C-1.855625 8.906875 -1.71125 7.81375 -1.5625 6.6875 C-1 3 -1 3 0 0 Z " fill="#050102" transform="translate(469,291)"/>
<path d="M0 0 C4.62 0 9.24 0 14 0 C14.02465288 4.68139254 14.04283739 9.36274759 14.05493164 14.04418945 C14.05997157 15.63794614 14.0668035 17.23169819 14.07543945 18.82543945 C14.08751999 21.11150253 14.09323155 23.39750467 14.09765625 25.68359375 C14.10281754 26.40026718 14.10797882 27.11694061 14.11329651 27.85533142 C14.11349263 29.57063672 14.06192007 31.28581266 14 33 C13 34 13 34 10.3125 34.1328125 C9.219375 34.13023437 8.12625 34.12765625 7 34.125 C5.906875 34.12757813 4.81375 34.13015625 3.6875 34.1328125 C1 34 1 34 0 33 C-0.08843793 30.55169574 -0.11528752 28.13179401 -0.09765625 25.68359375 C-0.0962413 24.95253922 -0.09482635 24.22148468 -0.09336853 23.46827698 C-0.08775408 21.12464368 -0.07519922 18.78110461 -0.0625 16.4375 C-0.05748686 14.85221492 -0.05292363 13.26692834 -0.04882812 11.68164062 C-0.03777997 7.7877239 -0.02050572 3.89387795 0 0 Z " fill="#040001" transform="translate(443,301)"/>
<path d="M0 0 C4.29 0 8.58 0 13 0 C13.02465288 4.68139254 13.04283739 9.36274759 13.05493164 14.04418945 C13.05997157 15.63794614 13.0668035 17.23169819 13.07543945 18.82543945 C13.08751999 21.11150253 13.09323155 23.39750467 13.09765625 25.68359375 C13.10281754 26.40026718 13.10797882 27.11694061 13.11329651 27.85533142 C13.11349263 29.57063672 13.06192007 31.28581266 13 33 C12 34 12 34 9.53125 34.1328125 C8.03078125 34.12894531 8.03078125 34.12894531 6.5 34.125 C5.4996875 34.12757813 4.499375 34.13015625 3.46875 34.1328125 C1 34 1 34 0 33 C-0.08843793 30.55169574 -0.11528752 28.13179401 -0.09765625 25.68359375 C-0.0962413 24.95253922 -0.09482635 24.22148468 -0.09336853 23.46827698 C-0.08775408 21.12464368 -0.07519922 18.78110461 -0.0625 16.4375 C-0.05748686 14.85221492 -0.05292363 13.26692834 -0.04882812 11.68164062 C-0.03777997 7.7877239 -0.02050572 3.89387795 0 0 Z " fill="#030100" transform="translate(341,301)"/>
<path d="M0 0 C3.40951722 1.13650574 4.37636276 2.25813125 6.6875 4.9375 C7.62142578 6.00291016 7.62142578 6.00291016 8.57421875 7.08984375 C10 9 10 9 10 11 C10.66 11 11.32 11 12 11 C19.53614245 21.24411565 22.18592949 31.66649044 22.125 44.1875 C22.13080078 45.39696289 22.13080078 45.39696289 22.13671875 46.63085938 C22.13542969 47.40623047 22.13414062 48.18160156 22.1328125 48.98046875 C22.13168457 49.68067139 22.13055664 50.38087402 22.12939453 51.10229492 C22 53 22 53 21 56 C21.99 56 22.98 56 24 56 C23.67 55.01 23.34 54.02 23 53 C23.59793673 50.64811553 24.25881795 48.31074405 25 46 C26.485 46.495 26.485 46.495 28 47 C28 43.37 28 39.74 28 36 C28.66 36 29.32 36 30 36 C30 42.27 30 48.54 30 55 C36.27 55.66 42.54 56.32 49 57 C49 57.66 49 58.32 49 59 C36.46 59 23.92 59 11 59 C10.67 58.34 10.34 57.68 10 57 C12.64 56.67 15.28 56.34 18 56 C18.64805825 38.4251587 17.91239091 23.03091098 5.4375 9.27734375 C4.30363957 8.17247407 3.15387872 7.08394667 2 6 C2 5.34 2 4.68 2 4 C1.34 4 0.68 4 0 4 C-0.33 3.01 -0.66 2.02 -1 1 C-0.67 0.67 -0.34 0.34 0 0 Z " fill="#100902" transform="translate(275,132)"/>
<path d="M0 0 C-2.47366002 2.47366002 -3.37817669 2.31117767 -6.80078125 2.53515625 C-23.44923168 3.8792128 -39.0129996 7.1201841 -55.15950012 11.27064514 C-61.55711578 12.91398866 -67.95392752 14.49873944 -74.421875 15.84375 C-75.6190918 16.09318359 -76.81630859 16.34261719 -78.04980469 16.59960938 C-81 17 -81 17 -84 16 C-83.67 15.34 -83.34 14.68 -83 14 C-80.30897122 13.153019 -77.66204294 12.42737611 -74.92578125 11.7578125 C-74.09864624 11.54916565 -73.27151123 11.3405188 -72.41931152 11.12554932 C-69.71945177 10.44853511 -67.01647647 9.78536845 -64.3125 9.125 C-62.93836441 8.78701385 -62.93836441 8.78701385 -61.53646851 8.44219971 C-40.76065773 3.34199573 -21.50192712 -0.79148198 0 0 Z " fill="#180E01" transform="translate(323,360)"/>
<path d="M0 0 C4.62 0 9.24 0 14 0 C14 2.97 14 5.94 14 9 C8.40693931 11.05459372 5.59306069 11.05459372 0 9 C0 6.03 0 3.06 0 0 Z " fill="#060101" transform="translate(443,289)"/>
<path d="M0 0 C0.66 0 1.32 0 2 0 C8.52333117 13.43264565 14.4162591 26.76627825 19 41 C17.515 41.495 17.515 41.495 16 42 C15.66266846 41.17387207 15.32533691 40.34774414 14.9777832 39.49658203 C13.70417509 36.38283353 12.42707207 33.27056413 11.14770508 30.15917969 C10.59848332 28.8215253 10.05059281 27.48332342 9.50415039 26.14453125 C8.71083649 24.20160297 7.91348694 22.26041208 7.11328125 20.3203125 C6.8529007 19.68836975 6.59252014 19.056427 6.32424927 18.40533447 C4.38938097 13.77519894 2.20246763 9.33807599 -0.22583008 4.94873047 C-1 3 -1 3 0 0 Z " fill="#160D01" transform="translate(326,199)"/>
<path d="M0 0 C4.29 0 8.58 0 13 0 C13 3.3 13 6.6 13 10 C11.02090602 10.02686553 9.04171029 10.04633375 7.0625 10.0625 C5.96035156 10.07410156 4.85820312 10.08570313 3.72265625 10.09765625 C1 10 1 10 0 9 C-0.14193337 5.99668982 -0.04236378 3.00782866 0 0 Z " fill="#060100" transform="translate(341,289)"/>
<path d="M0 0 C0.83595703 0.00451172 1.67191406 0.00902344 2.53320312 0.01367188 C4.58466649 0.02539452 6.63609273 0.04332797 8.6875 0.0625 C7.3675 0.3925 6.0475 0.7225 4.6875 1.0625 C4.3575 2.3825 4.0275 3.7025 3.6875 5.0625 C1.0475 5.3925 -1.5925 5.7225 -4.3125 6.0625 C-2.6625 6.7225 -1.0125 7.3825 0.6875 8.0625 C0.0275 8.7225 -0.6325 9.3825 -1.3125 10.0625 C-4.2825 9.0725 -7.2525 8.0825 -10.3125 7.0625 C-10.3125 6.0725 -10.3125 5.0825 -10.3125 4.0625 C-9.03052734 3.97162109 -9.03052734 3.97162109 -7.72265625 3.87890625 C-6.06556641 3.75322266 -6.06556641 3.75322266 -4.375 3.625 C-3.27285156 3.54378906 -2.17070312 3.46257812 -1.03515625 3.37890625 C1.59859903 3.35831916 1.59859903 3.35831916 2.6875 2.0625 C-4.97511226 2.37070493 -11.39689803 2.68153903 -18.3125 6.0625 C-19.3025 5.7325 -20.2925 5.4025 -21.3125 5.0625 C-23.06984451 10.03611654 -24.63834613 14.8040998 -25.3125 20.0625 C-25.6425 20.0625 -25.9725 20.0625 -26.3125 20.0625 C-26.67315574 9.78381148 -26.67315574 9.78381148 -24.3125 5.0625 C-16.64876296 0.5382903 -8.66925504 -0.08895053 0 0 Z " fill="#160B01" transform="translate(175.3125,188.9375)"/>
<path d="M0 0 C3.40951722 1.13650574 4.37636276 2.25813125 6.6875 4.9375 C7.62142578 6.00291016 7.62142578 6.00291016 8.57421875 7.08984375 C10 9 10 9 10 11 C10.66 11 11.32 11 12 11 C16.72841803 17.42748747 21.77196267 25.76573149 21 34 C17.65025807 31.03107083 16.19374193 28.50259118 14.6875 24.3125 C12.07012693 17.68398245 8.47017544 12.28795162 3.2890625 7.37890625 C2 6 2 6 2 4 C1.34 4 0.68 4 0 4 C-0.33 3.01 -0.66 2.02 -1 1 C-0.67 0.67 -0.34 0.34 0 0 Z " fill="#1F1501" transform="translate(275,132)"/>
<path d="M0 0 C0.8125 1.6875 0.8125 1.6875 1 4 C-1.3125 6.75 -1.3125 6.75 -4 9 C-4.66 9 -5.32 9 -6 9 C-6.33 9.99 -6.66 10.98 -7 12 C-9.07421875 13.68359375 -9.07421875 13.68359375 -11.6875 15.4375 C-12.59242188 16.0459375 -13.49734375 16.654375 -14.4296875 17.28125 C-15.70199219 18.13203125 -15.70199219 18.13203125 -17 19 C-17.60070312 19.4434375 -18.20140625 19.886875 -18.8203125 20.34375 C-21.97998116 22.6597375 -24.07784708 23.46142975 -28 23 C-25.01080242 19.78964461 -21.87787208 17.48418523 -18.1875 15.125 C-11.41079328 10.68139304 -5.62923874 5.79982173 0 0 Z " fill="#150C01" transform="translate(347,247)"/>
<path d="M0 0 C0.66 0 1.32 0 2 0 C1.67 4.29 1.34 8.58 1 13 C0.34 13 -0.32 13 -1 13 C-0.67 14.98 -0.34 16.96 0 19 C-0.66 19 -1.32 19 -2 19 C-2.33 21.64 -2.66 24.28 -3 27 C-3.33 27 -3.66 27 -4 27 C-4.23341328 20.69784145 -3.39477733 15.13513544 -2 9 C-1.80921875 8.12988281 -1.6184375 7.25976562 -1.421875 6.36328125 C-0.95533903 4.2405426 -0.47871537 2.12002519 0 0 Z " fill="#130904" transform="translate(133,290)"/>
<path d="M0 0 C3.33333333 3.33333333 6.66666667 6.66666667 10 10 C2.49230769 10.36923077 2.49230769 10.36923077 0 8.5 C-0.33 8.005 -0.66 7.51 -1 7 C-0.67 6.34 -0.34 5.68 0 5 C0.66 5.33 1.32 5.66 2 6 C1.34 4.02 0.68 2.04 0 0 Z " fill="#0F0900" transform="translate(208,260)"/>
<path d="M0 0 C0.66 0 1.32 0 2 0 C4 2 4 2 4.25 4.875 C4.00465981 7.94175238 3.5520272 9.41328799 2 12 C1.34 13.32 0.68 14.64 0 16 C0 10.72 0 5.44 0 0 Z " fill="#010000" transform="translate(174,208)"/>
<path d="M0 0 C2 1 2 1 3 2 C3 1.34 3 0.68 3 0 C3.66 0 4.32 0 5 0 C4.67 2.64 4.34 5.28 4 8 C2.68 7.34 1.36 6.68 0 6 C0 4.02 0 2.04 0 0 Z " fill="#140A04" transform="translate(205,175)"/>
<path d="M0 0 C1.32 0 2.64 0 4 0 C3 3 2 6 1 9 C0.67 9 0.34 9 0 9 C0 6.03 0 3.06 0 0 Z " fill="#100600" transform="translate(177,360)"/>
<path d="M0 0 C0.66 0 1.32 0 2 0 C1.88637738 1.4800841 1.75877092 2.95910074 1.625 4.4375 C1.52058594 5.67306641 1.52058594 5.67306641 1.4140625 6.93359375 C1.27742187 7.61550781 1.14078125 8.29742187 1 9 C0.01 9.495 0.01 9.495 -1 10 C-0.67 6.7 -0.34 3.4 0 0 Z " fill="#150A01" transform="translate(138,262)"/>
<path d="M0 0 C2.9375 0.375 2.9375 0.375 6 1 C6.33 1.66 6.66 2.32 7 3 C5.35 3 3.7 3 2 3 C2 3.66 2 4.32 2 5 C1.01 5 0.02 5 -1 5 C-0.67 3.35 -0.34 1.7 0 0 Z " fill="#120500" transform="translate(325,190)"/>
<path d="M0 0 C0.33 0.99 0.66 1.98 1 3 C-0.375 4.5 -0.375 4.5 -2 6 C-2.66 6 -3.32 6 -4 6 C-4.33 6.66 -4.66 7.32 -5 8 C-4.45773019 4.20411134 -2.79872437 2.52788007 0 0 Z " fill="#130700" transform="translate(12,350)"/>
<path d="" fill="#000000" transform="translate(0,0)"/>
</svg>
