<?xml version="1.0" encoding="UTF-8"?>
<svg version="1.1" xmlns="http://www.w3.org/2000/svg" width="165" height="40">
<path d="M0 0 C54.45 0 108.9 0 165 0 C165 13.2 165 26.4 165 40 C110.55 40 56.1 40 0 40 C0 26.8 0 13.6 0 0 Z " fill="#F9F9F9" transform="translate(0,0)"/>
<path d="M0 0 C0.99 0 1.98 0 3 0 C3 5.28 3 10.56 3 16 C3.99 15.01 4.98 14.02 6 13 C8.475 13.495 8.475 13.495 11 14 C11 19.61 11 25.22 11 31 C11.66 31 12.32 31 13 31 C13.10957031 29.97519531 13.21914063 28.95039063 13.33203125 27.89453125 C13.49156745 26.53378133 13.6517584 25.17310806 13.8125 23.8125 C13.88275391 23.13896484 13.95300781 22.46542969 14.02539062 21.77148438 C14.5433512 17.5242077 15.34087031 14.38958941 18 11 C21.125 10.125 21.125 10.125 24 10 C25 11 25 11 25.25 13.875 C25 17 25 17 23.625 18.875 C22 20 22 20 20 20 C20.66 22.64 21.32 25.28 22 28 C24.64752004 25.42215154 26.94432065 23.08351902 29 20 C29.66 20 30.32 20 31 20 C30.35330586 21.34313399 29.68096422 22.67391178 29 24 C28.608125 24.886875 28.21625 25.77375 27.8125 26.6875 C26 29 26 29 22.4375 29.9375 C20.7359375 29.9684375 20.7359375 29.9684375 19 30 C18.34 29.34 17.68 28.68 17 28 C15.68 29.65 14.36 31.3 13 33 C11.0625 32.625 11.0625 32.625 9 32 C7.46733418 28.93466836 7.89723529 25.73245728 7.9375 22.375 C7.94201172 21.66859375 7.94652344 20.9621875 7.95117188 20.234375 C7.96296125 18.48954725 7.98089676 16.744763 8 15 C7.34 15 6.68 15 6 15 C3.89312241 19.86202522 2.47914043 24.92161787 1 30 C0.67 30 0.34 30 0 30 C-0.13277344 29.11957031 -0.26554687 28.23914063 -0.40234375 27.33203125 C-0.57894531 26.17058594 -0.75554688 25.00914063 -0.9375 23.8125 C-1.11152344 22.66394531 -1.28554688 21.51539062 -1.46484375 20.33203125 C-1.78695465 18.32647943 -2.1506401 16.32608376 -2.59375 14.34375 C-3.22009666 10.73021157 -2.55086861 7.61124976 -2 4 C-4.31 4 -6.62 4 -9 4 C-9.41244221 9.17355017 -9.41244221 9.17355017 -7.125 13.6875 C-6.42375 14.450625 -5.7225 15.21375 -5 16 C-3.04533476 19.17547371 -2.70307868 21.66727456 -2.6875 25.375 C-2.67074219 26.29023438 -2.65398438 27.20546875 -2.63671875 28.1484375 C-3 31 -3 31 -6 37 C-15.57 37 -25.14 37 -35 37 C-38.18798687 30.62402625 -39.04011373 26.91773757 -38 20 C-36.3163321 15.67570767 -33.75311764 12.75311764 -30.5 9.5 C-25.10731775 7.18885046 -19.78394819 7.69106508 -14 8 C-13.67 6.68 -13.34 5.36 -13 4 C-16.3 4.33 -19.6 4.66 -23 5 C-22.67 4.01 -22.34 3.02 -22 2 C-19.30487614 0.98091198 -16.78370489 0.88908911 -13.92578125 0.9375 C-12.80139648 0.94910156 -12.80139648 0.94910156 -11.65429688 0.9609375 C-10.88150391 0.97382812 -10.10871094 0.98671875 -9.3125 1 C-6.535726 1.0456331 -3.77805879 1.04723586 -1 1 C-0.67 0.67 -0.34 0.34 0 0 Z " fill="#F7C216" transform="translate(40,3)"/>
<path d="M0 0 C0 0.66 0 1.32 0 2 C-2.97 2 -5.94 2 -9 2 C-9.33 10.91 -9.66 19.82 -10 29 C-5.2552509 24.2552509 -3.95472941 21.72837649 -2.875 15.25 C-2.70742187 14.26515625 -2.53984375 13.2803125 -2.3671875 12.265625 C-2.24601562 11.51796875 -2.12484375 10.7703125 -2 10 C-1.34 10 -0.68 10 0 10 C0.495 17.92 0.495 17.92 1 26 C3.39048485 22.81268686 4.3473552 21.45169349 5.4375 17.9375 C6.64892362 14.54929957 7.63081147 12.63354595 11 11 C12.32 11 13.64 11 15 11 C15.33 7.7 15.66 4.4 16 1 C17.32 0.67 18.64 0.34 20 0 C20.495 14.355 20.495 14.355 21 29 C22.68285894 23.33291086 22.68285894 23.33291086 23.5625 17.73828125 C23.63726562 17.01189453 23.71203125 16.28550781 23.7890625 15.53710938 C23.93078881 14.04242173 24.0713969 12.54762766 24.2109375 11.05273438 C24.59689994 7.32287319 24.96971825 4.20615326 27 1 C27.99 1 28.98 1 30 1 C30.495 7.435 30.495 7.435 31 14 C31.99 13.34 32.98 12.68 34 12 C37.51724138 12.51724138 37.51724138 12.51724138 39 14 C39.04063832 15.66617115 39.042721 17.33388095 39 19 C40.32 19 41.64 19 43 19 C43 16.36 43 13.72 43 11 C43.99 10.67 44.98 10.34 46 10 C46.495 17.92 46.495 17.92 47 26 C50.74974334 21.00034221 51.17108709 19.02577427 51.5625 12.875 C51.68818359 10.95300781 51.68818359 10.95300781 51.81640625 8.9921875 C51.87699219 8.00476562 51.93757813 7.01734375 52 6 C50.68 6 49.36 6 48 6 C48 5.34 48 4.68 48 4 C49.65 4 51.3 4 53 4 C53 2.68 53 1.36 53 0 C54.32 0 55.64 0 57 0 C57 0.99 57 1.98 57 3 C60.63 3 64.26 3 68 3 C68 3.66 68 4.32 68 5 C64.37 5 60.74 5 57 5 C57 13.25 57 21.5 57 30 C59.7425957 27.2574043 60.50207198 26.25588615 61.6875 22.8125 C61.93886719 22.09707031 62.19023437 21.38164062 62.44921875 20.64453125 C62.63097656 20.10183594 62.81273437 19.55914063 63 19 C63.66 19 64.32 19 65 19 C64.63118644 25.14689273 63.09949571 27.69027374 59 32 C56.6875 31.8125 56.6875 31.8125 54 31 C52.1875 28.4375 52.1875 28.4375 51 26 C50.67 26.66 50.34 27.32 50 28 C48.02 28 46.04 28 44 28 C43.01 24.535 43.01 24.535 42 21 C39.11801227 22.17414315 37.69329931 23.32203572 35.5 25.625 C33 28 33 28 29 28 C29 29.32 29 30.64 29 32 C27.68 32 26.36 32 25 32 C25 31.01 25 30.02 25 29 C24.34 29 23.68 29 23 29 C22.67 30.65 22.34 32.3 22 34 C20.35 33.67 18.7 33.34 17 33 C16.01 29.04 15.02 25.08 14 21 C13.01 22.65 12.02 24.3 11 26 C9.35 25.67 7.7 25.34 6 25 C5.01 26.32 4.02 27.64 3 29 C0.5625 28.625 0.5625 28.625 -2 28 C-2.33 27.34 -2.66 26.68 -3 26 C-3.53625 26.825 -4.0725 27.65 -4.625 28.5 C-7 31 -7 31 -10.25 31.3125 C-11.1575 31.209375 -12.065 31.10625 -13 31 C-14.733501 27.99074188 -15.24843641 25.83606527 -15.23046875 22.375 C-15.22853516 21.50359375 -15.22660156 20.6321875 -15.22460938 19.734375 C-15.21236328 18.83203125 -15.20011719 17.9296875 -15.1875 17 C-15.18685547 16.09765625 -15.18621094 15.1953125 -15.18554688 14.265625 C-15.15866566 10.22746942 -14.98915049 6.95660197 -14 3 C-18.455 3.495 -18.455 3.495 -23 4 C-23.33 3.01 -23.66 2.02 -24 1 C-16.09801778 -2.24183886 -8.26745385 -1.04983541 0 0 Z " fill="#121212" transform="translate(89,5)"/>
<path d="M0 0 C2.31 0 4.62 0 7 0 C6.97679687 0.81984375 6.95359375 1.6396875 6.9296875 2.484375 C6.91164063 3.56203125 6.89359375 4.6396875 6.875 5.75 C6.85179687 6.81734375 6.82859375 7.8846875 6.8046875 8.984375 C6.99901128 11.98473418 7.54300629 13.43922318 9 16 C9.38290462 17.99110401 9.72604615 19.99100513 10 22 C10.27714844 21.37351562 10.55429687 20.74703125 10.83984375 20.1015625 C11.20207031 19.28429687 11.56429687 18.46703125 11.9375 17.625 C12.29714844 16.81289063 12.65679687 16.00078125 13.02734375 15.1640625 C13.6569903 13.76316215 14.31312642 12.37374716 15 11 C15.66 11 16.32 11 17 11 C17.06058594 12.05960938 17.12117188 13.11921875 17.18359375 14.2109375 C17.26800127 15.59897221 17.35264917 16.98699232 17.4375 18.375 C17.47681641 19.07367187 17.51613281 19.77234375 17.55664062 20.4921875 C17.74280134 24.37360492 17.74280134 24.37360492 19 28 C21.88575819 27.60196439 22.82189513 27.20990931 24.75 24.9375 C25.1625 24.298125 25.575 23.65875 26 23 C26.66 23.66 27.32 24.32 28 25 C31.58343976 25.16677282 31.58343976 25.16677282 35 25 C35.2475 24.236875 35.495 23.47375 35.75 22.6875 C37 20 37 20 39.0625 18.625 C41.39652937 17.0099762 41.39652937 17.0099762 41.75 13.3125 C41.8325 12.219375 41.915 11.12625 42 10 C42.33 10 42.66 10 43 10 C43.06058594 11.03640625 43.12117188 12.0728125 43.18359375 13.140625 C43.26803371 14.51042873 43.35267997 15.88021975 43.4375 17.25 C43.47681641 17.93191406 43.51613281 18.61382813 43.55664062 19.31640625 C43.76666472 22.64448041 44.01934002 25.80255402 45 29 C50.02242381 27.95508546 50.02242381 27.95508546 53.9375 24.875 C54.288125 24.25625 54.63875 23.6375 55 23 C55.495 24.485 55.495 24.485 56 26 C58.37374861 26.33425735 58.37374861 26.33425735 61 26 C62.84315671 24.0995533 62.84315671 24.0995533 64 22 C65.65 22.33 67.3 22.66 69 23 C69.474375 22.175 69.94875 21.35 70.4375 20.5 C71.2109375 19.2625 71.2109375 19.2625 72 18 C72.33 18 72.66 18 73 18 C73.13277344 18.68707031 73.26554687 19.37414062 73.40234375 20.08203125 C73.66724609 21.43361328 73.66724609 21.43361328 73.9375 22.8125 C74.19853516 24.15248047 74.19853516 24.15248047 74.46484375 25.51953125 C75.40722826 30.07540245 75.40722826 30.07540245 79 33 C53.92 33 28.84 33 3 33 C3.66 31.02 4.32 29.04 5 27 C5.93644433 20.15902772 5.3149148 15.22068426 1.2890625 9.55859375 C-0.06207521 7.87510541 -0.06207521 7.87510541 -2 6 C-1.34 6 -0.68 6 0 6 C0 4.02 0 2.04 0 0 Z " fill="#F7F7F7" transform="translate(31,7)"/>
<path d="M0 0 C0.99 0 1.98 0 3 0 C3 5.28 3 10.56 3 16 C3.99 15.01 4.98 14.02 6 13 C8.475 13.495 8.475 13.495 11 14 C11 19.61 11 25.22 11 31 C11.66 31 12.32 31 13 31 C13.10957031 29.97519531 13.21914063 28.95039063 13.33203125 27.89453125 C13.49156745 26.53378133 13.6517584 25.17310806 13.8125 23.8125 C13.88275391 23.13896484 13.95300781 22.46542969 14.02539062 21.77148438 C14.5433512 17.5242077 15.34087031 14.38958941 18 11 C21.125 10.125 21.125 10.125 24 10 C25 11 25 11 25.25 13.875 C25 17 25 17 23.625 18.875 C22 20 22 20 20 20 C20.66 22.64 21.32 25.28 22 28 C24.64752004 25.42215154 26.94432065 23.08351902 29 20 C29.66 20 30.32 20 31 20 C30.35330586 21.34313399 29.68096422 22.67391178 29 24 C28.608125 24.886875 28.21625 25.77375 27.8125 26.6875 C26 29 26 29 22.4375 29.9375 C20.7359375 29.9684375 20.7359375 29.9684375 19 30 C18.34 29.34 17.68 28.68 17 28 C15.68 29.65 14.36 31.3 13 33 C11.0625 32.625 11.0625 32.625 9 32 C7.46733418 28.93466836 7.89723529 25.73245728 7.9375 22.375 C7.94201172 21.66859375 7.94652344 20.9621875 7.95117188 20.234375 C7.96296125 18.48954725 7.98089676 16.744763 8 15 C7.34 15 6.68 15 6 15 C3.89312241 19.86202522 2.47914043 24.92161787 1 30 C0.67 30 0.34 30 0 30 C-0.13277344 29.11957031 -0.26554687 28.23914063 -0.40234375 27.33203125 C-0.57894531 26.17058594 -0.75554688 25.00914063 -0.9375 23.8125 C-1.11152344 22.66394531 -1.28554688 21.51539062 -1.46484375 20.33203125 C-1.78695465 18.32647943 -2.1506401 16.32608376 -2.59375 14.34375 C-3.22009666 10.73021157 -2.55086861 7.61124976 -2 4 C-4.31 4 -6.62 4 -9 4 C-9 5.98 -9 7.96 -9 10 C-11.475 9.01 -11.475 9.01 -14 8 C-13.67 6.68 -13.34 5.36 -13 4 C-16.3 4.33 -19.6 4.66 -23 5 C-22.67 4.01 -22.34 3.02 -22 2 C-19.30487614 0.98091198 -16.78370489 0.88908911 -13.92578125 0.9375 C-12.80139648 0.94910156 -12.80139648 0.94910156 -11.65429688 0.9609375 C-10.88150391 0.97382812 -10.10871094 0.98671875 -9.3125 1 C-6.535726 1.0456331 -3.77805879 1.04723586 -1 1 C-0.67 0.67 -0.34 0.34 0 0 Z " fill="#161616" transform="translate(40,3)"/>
<path d="M0 0 C1.32 0 2.64 0 4 0 C4 0.99 4 1.98 4 3 C7.63 3 11.26 3 15 3 C15 3.66 15 4.32 15 5 C11.37 5 7.74 5 4 5 C4 13.25 4 21.5 4 30 C6.7425957 27.2574043 7.50207198 26.25588615 8.6875 22.8125 C8.93886719 22.09707031 9.19023437 21.38164062 9.44921875 20.64453125 C9.63097656 20.10183594 9.81273437 19.55914063 10 19 C10.66 19 11.32 19 12 19 C11.63118644 25.14689273 10.09949571 27.69027374 6 32 C3.6875 31.8125 3.6875 31.8125 1 31 C-0.8125 28.4375 -0.8125 28.4375 -2 26 C-2.33 26.66 -2.66 27.32 -3 28 C-4.98 28 -6.96 28 -9 28 C-9.66 25.69 -10.32 23.38 -11 21 C-13.92101014 22.19004117 -15.29946228 23.32192195 -17.5 25.6875 C-18.325 26.450625 -19.15 27.21375 -20 28 C-22.3125 27.8125 -22.3125 27.8125 -24 27 C-24.21638038 21.48230032 -23.93072655 17.63280893 -20.625 13.125 C-19 12 -19 12 -16.875 12.25 C-15 13 -15 13 -14 14 C-13.95936168 15.66617115 -13.957279 17.33388095 -14 19 C-12.68 19 -11.36 19 -10 19 C-10 16.36 -10 13.72 -10 11 C-9.01 10.67 -8.02 10.34 -7 10 C-6.505 17.92 -6.505 17.92 -6 26 C-2.25025666 21.00034221 -1.82891291 19.02577427 -1.4375 12.875 C-1.35371094 11.59367187 -1.26992187 10.31234375 -1.18359375 8.9921875 C-1.09271484 7.51105469 -1.09271484 7.51105469 -1 6 C-2.32 6 -3.64 6 -5 6 C-5 5.34 -5 4.68 -5 4 C-3.35 4 -1.7 4 0 4 C0 2.68 0 1.36 0 0 Z " fill="#141414" transform="translate(142,5)"/>
<path d="M0 0 C0.99 0 1.98 0 3 0 C3.33 9.57 3.66 19.14 4 29 C5.68285894 23.33291086 5.68285894 23.33291086 6.5625 17.73828125 C6.63726562 17.01189453 6.71203125 16.28550781 6.7890625 15.53710938 C6.93078881 14.04242173 7.0713969 12.54762766 7.2109375 11.05273438 C7.59689994 7.32287319 7.96971825 4.20615326 10 1 C10.99 1 11.98 1 13 1 C13 5.62 13 10.24 13 15 C13.66 15 14.32 15 15 15 C14.690625 15.680625 14.38125 16.36125 14.0625 17.0625 C12.86629351 20.36965912 12.40994603 23.51545878 12 27 C12.66 27.33 13.32 27.66 14 28 C13.34 28 12.68 28 12 28 C12 29.32 12 30.64 12 32 C10.68 32 9.36 32 8 32 C8 31.01 8 30.02 8 29 C7.34 29 6.68 29 6 29 C5.505 31.475 5.505 31.475 5 34 C3.35 33.67 1.7 33.34 0 33 C-0.99 29.04 -1.98 25.08 -3 21 C-3.99 21.33 -4.98 21.66 -6 22 C-5.37987481 19.26964299 -4.75409113 16.54079236 -4.125 13.8125 C-3.95097656 13.04357422 -3.77695313 12.27464844 -3.59765625 11.48242188 C-2.67454956 7.49938746 -1.66927814 3.75211617 0 0 Z " fill="#111111" transform="translate(106,5)"/>
<path d="M0 0 C2 0.125 2 0.125 4 1 C5.25 3.0625 5.25 3.0625 6 5 C6.66 5 7.32 5 8 5 C8.33 6.98 8.66 8.96 9 11 C8.34 10.67 7.68 10.34 7 10 C7 8.68 7 7.36 7 6 C4.03 6 1.06 6 -2 6 C-2.66 7.98 -3.32 9.96 -4 12 C2.93 12 9.86 12 17 12 C17 12.99 17 13.98 17 15 C15.88625 15.12375 14.7725 15.2475 13.625 15.375 C9.96896323 15.6465813 9.96896323 15.6465813 8 18 C2.45253089 19.63160856 -3.44821457 19.48047611 -9 18 C-10.99963028 17.96154557 -13.00051633 17.95455719 -15 18 C-14.505 16.515 -14.505 16.515 -14 15 C-10.535 14.505 -10.535 14.505 -7 14 C-7.103125 12.948125 -7.20625 11.89625 -7.3125 10.8125 C-7 7 -7 7 -4.625 4.1875 C-3.75875 3.465625 -2.8925 2.74375 -2 2 C-1.34 1.34 -0.68 0.68 0 0 Z " fill="#E2C941" transform="translate(18,17)"/>
<path d="M0 0 C1.23556641 0.01740234 1.23556641 0.01740234 2.49609375 0.03515625 C3.32238281 0.04417969 4.14867188 0.05320312 5 0.0625 C5.63808594 0.07410156 6.27617188 0.08570312 6.93359375 0.09765625 C5.05859375 6.97265625 5.05859375 6.97265625 3.93359375 8.09765625 C1.78800548 8.1854123 -0.36045046 8.20460844 -2.5078125 8.1953125 C-3.81298828 8.19208984 -5.11816406 8.18886719 -6.46289062 8.18554688 C-7.85156315 8.17719026 -9.24023502 8.1687253 -10.62890625 8.16015625 C-12.02148281 8.15514291 -13.41406106 8.15057972 -14.80664062 8.14648438 C-18.22660495 8.13465059 -21.64648469 8.11816505 -25.06640625 8.09765625 C-25.72640625 6.44765625 -26.38640625 4.79765625 -27.06640625 3.09765625 C-19.31640625 1.97265625 -19.31640625 1.97265625 -17.06640625 3.09765625 C-11.85399276 3.35827692 -7.96181608 3.12746033 -3.06640625 1.09765625 C-2.06640625 0.09765625 -2.06640625 0.09765625 0 0 Z " fill="#F8C314" transform="translate(30.06640625,31.90234375)"/>
<path d="M0 0 C0.36666667 5.5 0.36666667 5.5 -1.375 7.875 C-3 9 -3 9 -5 9 C-4.34 11.64 -3.68 14.28 -3 17 C-0.35247996 14.42215154 1.94432065 12.08351902 4 9 C4.66 9 5.32 9 6 9 C5.35330586 10.34313399 4.68096422 11.67391178 4 13 C3.608125 13.886875 3.21625 14.77375 2.8125 15.6875 C1 18 1 18 -2.4375 19.0625 C-6 19 -6 19 -8.4375 17.6875 C-10.83561164 13.56274799 -10.64047282 9.65661413 -10 5 C-7.51310169 -0.53900079 -5.76984972 -1.36654336 0 0 Z " fill="#2A2A2A" transform="translate(65,14)"/>
<path d="M0 0 C1.875 0.75 1.875 0.75 2.875 1.75 C2.91563832 3.41617115 2.917721 5.08388095 2.875 6.75 C4.195 7.08 5.515 7.41 6.875 7.75 C6.545 8.74 6.215 9.73 5.875 10.75 C5.875 10.09 5.875 9.43 5.875 8.75 C2.95398986 9.94004117 1.57553772 11.07192195 -0.625 13.4375 C-1.45 14.200625 -2.275 14.96375 -3.125 15.75 C-5.4375 15.5625 -5.4375 15.5625 -7.125 14.75 C-7.34138038 9.23230032 -7.05572655 5.38280893 -3.75 0.875 C-2.125 -0.25 -2.125 -0.25 0 0 Z " fill="#242424" transform="translate(125.125,17.25)"/>
<path d="M0 0 C2.31 0 4.62 0 7 0 C6.97679687 0.81984375 6.95359375 1.6396875 6.9296875 2.484375 C6.91164063 3.56203125 6.89359375 4.6396875 6.875 5.75 C6.85179687 6.81734375 6.82859375 7.8846875 6.8046875 8.984375 C7.00187029 12.02887732 7.61924711 13.36401721 9 16 C9.4140625 18.796875 9.4140625 18.796875 9.625 21.75 C9.69976562 22.73484375 9.77453125 23.7196875 9.8515625 24.734375 C9.90054688 25.48203125 9.94953125 26.2296875 10 27 C8.68 26.67 7.36 26.34 6 26 C5.98582031 25.3709375 5.97164062 24.741875 5.95703125 24.09375 C5.5358911 16.53599167 3.37131176 11.37131176 -2 6 C-1.34 6 -0.68 6 0 6 C0 4.02 0 2.04 0 0 Z " fill="#E9E7E3" transform="translate(31,7)"/>
<path d="M0 0 C2.31 0.33 4.62 0.66 7 1 C7.738041 15.78132118 7.738041 15.78132118 3 22 C2.34 21.67 1.68 21.34 1 21 C1 15.39 1 9.78 1 4 C0.34 3.67 -0.32 3.34 -1 3 C-0.67 2.01 -0.34 1.02 0 0 Z " fill="#DDDDDD" transform="translate(134,10)"/>
<path d="M0 0 C-0.8974359 5.64102564 -0.8974359 5.64102564 -1.625 8.1875 C-2.20433282 10.22346469 -2.20433282 10.22346469 -1 13 C-1.66 13.66 -2.32 14.32 -3 15 C-3.804375 14.814375 -4.60875 14.62875 -5.4375 14.4375 C-6.283125 14.293125 -7.12875 14.14875 -8 14 C-9.8354799 15.33378575 -9.8354799 15.33378575 -11 17 C-12 15 -12 15 -11.14453125 12.28515625 C-10.70496094 11.22167969 -10.26539062 10.15820312 -9.8125 9.0625 C-9.38582031 8.00160156 -8.95914063 6.94070312 -8.51953125 5.84765625 C-6.35888486 1.79852715 -4.66708518 0 0 0 Z " fill="#1B1B1B" transform="translate(103,16)"/>
<path d="M0 0 C0.66 0 1.32 0 2 0 C2.07347656 1.71509766 2.07347656 1.71509766 2.1484375 3.46484375 C2.22345189 4.95575473 2.29900028 6.44663892 2.375 7.9375 C2.4059375 8.69224609 2.436875 9.44699219 2.46875 10.22460938 C2.5726315 12.15507395 2.77895614 14.07942081 3 16 C3.66 16.33 4.32 16.66 5 17 C5 17.66 5 18.32 5 19 C2.5625 18.625 2.5625 18.625 0 18 C-0.33 17.34 -0.66 16.68 -1 16 C-2.65 17.65 -4.3 19.3 -6 21 C-6.66 20.34 -7.32 19.68 -8 19 C-7.38125 18.4225 -6.7625 17.845 -6.125 17.25 C-2.63837849 13.5582831 -1.7025196 10.21511758 -0.875 5.25 C-0.70742187 4.26515625 -0.53984375 3.2803125 -0.3671875 2.265625 C-0.24601562 1.51796875 -0.12484375 0.7703125 0 0 Z " fill="#181818" transform="translate(87,15)"/>
<path d="M0 0 C0 0.33 0 0.66 0 1 C-2.64 1.33 -5.28 1.66 -8 2 C-8 3.98 -8 5.96 -8 8 C-10.475 7.01 -10.475 7.01 -13 6 C-12.67 4.68 -12.34 3.36 -12 2 C-15.3 2.33 -18.6 2.66 -22 3 C-21.67 2.01 -21.34 1.02 -21 0 C-14.55063409 -2.43954276 -6.6320084 -0.96465577 0 0 Z " fill="#272727" transform="translate(39,5)"/>
<path d="M0 0 C2.97 0 5.94 0 9 0 C9.66 1.98 10.32 3.96 11 6 C6.71 6 2.42 6 -2 6 C-1.34 4.02 -0.68 2.04 0 0 Z " fill="#EDDA5F" transform="translate(16,23)"/>
<path d="M0 0 C0.66 0 1.32 0 2 0 C2.04898438 1.13179687 2.09796875 2.26359375 2.1484375 3.4296875 C2.22346514 4.91148339 2.29901297 6.393253 2.375 7.875 C2.4059375 8.62136719 2.436875 9.36773437 2.46875 10.13671875 C2.55643831 14.53473188 2.55643831 14.53473188 5 18 C3.35 18 1.7 18 0 18 C-1.35439668 15.29120665 -1.06501451 12.99066732 -1 10 C-1.66 9.67 -2.32 9.34 -3 9 C-2.34 9 -1.68 9 -1 9 C-1.020625 7.700625 -1.04125 6.40125 -1.0625 5.0625 C-1.08399454 3.70834367 -1.07148199 2.35243917 -1 1 C-0.67 0.67 -0.34 0.34 0 0 Z " fill="#0D0D0D" transform="translate(133,15)"/>
<path d="M0 0 C0.66 0 1.32 0 2 0 C2.66 4.29 3.32 8.58 4 13 C3.01 13.495 3.01 13.495 2 14 C1.34 13.67 0.68 13.34 0 13 C0 8.71 0 4.42 0 0 Z " fill="#D9D2C1" transform="translate(37,20)"/>
<path d="M0 0 C2.19050021 0.09017996 4.378466 0.24666208 6.5625 0.4375 C7.76003906 0.53933594 8.95757812 0.64117187 10.19140625 0.74609375 C11.11824219 0.82988281 12.04507813 0.91367187 13 1 C13 1.99 13 2.98 13 4 C8.71 4 4.42 4 0 4 C-0.33 3.01 -0.66 2.02 -1 1 C-0.67 0.67 -0.34 0.34 0 0 Z " fill="#C5C5C5" transform="translate(150,34)"/>
<path d="M0 0 C0 1.65 0 3.3 0 5 C-3.63 4.67 -7.26 4.34 -11 4 C-10.67 3.01 -10.34 2.02 -10 1 C-6.76421296 -0.31828361 -3.44785988 -0.07836045 0 0 Z " fill="#EBE4D4" transform="translate(27,7)"/>
<path d="M0 0 C2.475 0.99 2.475 0.99 5 2 C5 2.66 5 3.32 5 4 C5.66 4 6.32 4 7 4 C7.33 5.98 7.66 7.96 8 10 C7.34 9.67 6.68 9.34 6 9 C6 7.68 6 6.36 6 5 C3.36 5 0.72 5 -2 5 C-1.34 3.35 -0.68 1.7 0 0 Z " fill="#D6BA2D" transform="translate(19,18)"/>
<path d="M0 0 C0 1.98 0 3.96 0 6 C-1.98 6.66 -3.96 7.32 -6 8 C-5.62403791 5.21788056 -5.32681541 3.4120716 -3.5625 1.1875 C-2 0 -2 0 0 0 Z " fill="#F1F1F1" transform="translate(125,19)"/>
<path d="M0 0 C0.33 1.32 0.66 2.64 1 4 C-2.3 4 -5.6 4 -9 4 C-8.67 3.01 -8.34 2.02 -8 1 C-5.29120665 -0.35439668 -2.99066732 -0.06501451 0 0 Z " fill="#B9941A" transform="translate(12,31)"/>
<path d="M0 0 C1.98 0 3.96 0 6 0 C6.5625 1.9375 6.5625 1.9375 7 4 C6 5 6 5 3.4375 5.0625 C2.2309375 5.0315625 2.2309375 5.0315625 1 5 C0.67 3.35 0.34 1.7 0 0 Z " fill="#F8EB7C" transform="translate(17,24)"/>
<path d="M0 0 C2.97 0.495 2.97 0.495 6 1 C6.33 3.31 6.66 5.62 7 8 C5.68 8 4.36 8 3 8 C2.87625 6.865625 2.7525 5.73125 2.625 4.5625 C2.41875 3.386875 2.2125 2.21125 2 1 C1.34 0.67 0.68 0.34 0 0 Z " fill="#F7D42E" transform="translate(24,21)"/>
<path d="M0 0 C1.75 0.9375 1.75 0.9375 2.75 2.9375 C1.43 2.6075 0.11 2.2775 -1.25 1.9375 C-2.9 4.9075 -4.55 7.8775 -6.25 10.9375 C-6.91 10.9375 -7.57 10.9375 -8.25 10.9375 C-7.97433285 6.98627078 -7.42285643 5.15707438 -4.9375 2 C-2.25 -0.0625 -2.25 -0.0625 0 0 Z " fill="#B59B28" transform="translate(20.25,17.0625)"/>
<path d="M0 0 C0.99 0.33 1.98 0.66 3 1 C0.65511755 3.94851556 -0.42333987 4.93035506 -4.234375 5.390625 C-5.39453125 5.34421875 -6.5546875 5.2978125 -7.75 5.25 C-8.92046875 5.21390625 -10.0909375 5.1778125 -11.296875 5.140625 C-12.18890625 5.09421875 -13.0809375 5.0478125 -14 5 C-14 4.67 -14 4.34 -14 4 C-12.73542969 3.81824219 -12.73542969 3.81824219 -11.4453125 3.6328125 C-10.34960938 3.46523438 -9.25390625 3.29765625 -8.125 3.125 C-7.03445312 2.96257813 -5.94390625 2.80015625 -4.8203125 2.6328125 C-1.88067286 2.23743487 -1.88067286 2.23743487 0 0 Z " fill="#F8D121" transform="translate(28,32)"/>
<path d="M0 0 C-0.45082469 1.46067199 -0.91093537 2.91848032 -1.375 4.375 C-1.63023438 5.18710937 -1.88546875 5.99921875 -2.1484375 6.8359375 C-3 9 -3 9 -5 11 C-5.36637589 4.64948454 -5.36637589 4.64948454 -3.625 1.5625 C-2 0 -2 0 0 0 Z " fill="#E8E8E8" transform="translate(103,18)"/>
<path d="M0 0 C0 0.99 0 1.98 0 3 C-2.97 3 -5.94 3 -9 3 C-9 2.34 -9 1.68 -9 1 C-6.04335481 -0.4783226 -3.25770263 -0.06032783 0 0 Z " fill="#6E5D15" transform="translate(35,29)"/>
<path d="M0 0 C0.33 0.66 0.66 1.32 1 2 C2.32 1.67 3.64 1.34 5 1 C5.33 1.99 5.66 2.98 6 4 C2.25 7 2.25 7 0 7 C0 4.69 0 2.38 0 0 Z " fill="#838383" transform="translate(118,25)"/>
<path d="M0 0 C0.99 0 1.98 0 3 0 C2.50639991 4.27786748 1.95216435 7.09567131 0 11 C0 7.37 0 3.74 0 0 Z " fill="#0F0F0F" transform="translate(40,22)"/>
<path d="M0 0 C-0.33 0.66 -0.66 1.32 -1 2 C-3.32156597 2.40729228 -5.6568787 2.74438677 -8 3 C-7.67 2.01 -7.34 1.02 -7 0 C-4.05610218 -1.17755913 -3.10046087 -1.03348696 0 0 Z " fill="#0F0F0F" transform="translate(25,5)"/>
<path d="M0 0 C1.65 0 3.3 0 5 0 C4.01 0.495 4.01 0.495 3 1 C3 1.66 3 2.32 3 3 C3.66 3.33 4.32 3.66 5 4 C3.02 4.33 1.04 4.66 -1 5 C-0.67 3.35 -0.34 1.7 0 0 Z " fill="#B4A33C" transform="translate(23,29)"/>
<path d="M0 0 C0.66 0 1.32 0 2 0 C3.16063604 4.25566547 2.76173392 7.6835078 2 12 C1.67 12 1.34 12 1 12 C0.67 8.04 0.34 4.08 0 0 Z " fill="#757373" transform="translate(37,20)"/>
<path d="M0 0 C2.64 0.33 5.28 0.66 8 1 C8 1.66 8 2.32 8 3 C5.69 3 3.38 3 1 3 C0.67 2.01 0.34 1.02 0 0 Z " fill="#655E31" transform="translate(14,29)"/>
<path d="M0 0 C0.66 0 1.32 0 2 0 C1.67 2.31 1.34 4.62 1 7 C0.01 7 -0.98 7 -2 7 C-1.34 4.69 -0.68 2.38 0 0 Z " fill="#2A2A2A" transform="translate(152,24)"/>
<path d="M0 0 C0.66 0.66 1.32 1.32 2 2 C1.34 2 0.68 2 0 2 C-0.66 3.65 -1.32 5.3 -2 7 C-2.99 6.67 -3.98 6.34 -5 6 C-3.86695008 2.60085025 -2.87481525 1.94745549 0 0 Z " fill="#242424" transform="translate(46,16)"/>
</svg>
